<?xml version="1.0" standalone="no"?>
<!DOCTYPE svg PUBLIC "-//W3C//DTD SVG 20010904//EN"
 "http://www.w3.org/TR/2001/REC-SVG-20010904/DTD/svg10.dtd">
<svg version="1.0" xmlns="http://www.w3.org/2000/svg"
 width="1001.000000pt" height="1001.000000pt" viewBox="0 0 1001.000000 1001.000000"
 preserveAspectRatio="xMidYMid meet">
<metadata>
Created by potrace 1.14, written by Peter Selinger 2001-2017
</metadata>
<g transform="translate(0.000000,1001.000000) scale(0.100000,-0.100000)"
fill="#000000" stroke="none">
<path d="M462 8983 c-18 -9 -43 -30 -55 -47 -22 -30 -22 -36 -22 -356 0 -320
0 -325 22 -356 49 -68 -37 -64 1292 -64 l1201 0 0 -3589 0 -3588 23 -34 c44
-66 59 -69 377 -69 318 0 333 3 377 69 l23 34 0 3588 0 3589 520 0 520 0 0
-3579 0 -3578 23 -34 c44 -66 60 -69 367 -69 307 0 323 3 367 69 l23 34 0
1254 0 1255 352 684 c246 479 354 679 359 667 12 -34 1148 -3878 1153 -3905 4
-15 18 -35 32 -45 23 -15 61 -16 366 -14 187 1 346 5 354 8 8 3 17 17 20 32 3
14 9 33 15 41 5 8 12 21 15 28 4 8 -25 120 -63 250 -39 130 -362 1218 -717
2417 -356 1199 -649 2191 -652 2205 -3 19 140 306 575 1150 l579 1125 859 5
858 5 31 22 c63 45 65 58 62 405 -3 305 -4 314 -25 344 -13 17 -38 39 -57 48
-31 15 -407 16 -4588 16 -4174 0 -4556 -2 -4586 -17z m6558 -828 c0 -3 -323
-634 -719 -1403 -395 -768 -732 -1424 -749 -1457 l-31 -60 -1 1463 0 1462 750
0 c413 0 750 -2 750 -5z"/>
</g>
</svg>
